<svg xmlns:xlink="http://www.w3.org/1999/xlink" xmlns="http://www.w3.org/2000/svg" width="600" height="300.03" stroke-width="1.5" fill="#333333ff" stroke="currentColor" class="h-6 w-6" viewBox="0 0 10.583 5.292"><g id="g7" class="rotate-center" stroke-opacity="0.54" stroke="#000000" fill="#333333" stroke-width="1.5px"><path id="path5" fill="#FFFFFF" fill-opacity="1" stroke="none" stroke-linejoin="round" stroke-dasharray="none" stroke-opacity="1" d="m 0.78342918,1.8962828 a 1.8101618,1.8101618 0 0 0 -0.0247546,0.017674 c 0.00811,-0.00608 0.0165446,-0.011726 0.0247546,-0.017674 z M 1.8769714,2.0136473 c -0.7765346,0 -1.4004162,0.6238816 -1.4004162,1.4004162 0,0.3649264 0.13779464,0.6961165 0.36444515,0.9447047 L 2.8628131,2.4174207 C 2.6102144,2.1675648 2.2624763,2.0136473 1.8769714,2.0136473 Z M 0.6019818,2.0457923 A 1.8101618,1.8101618 0 0 0 0.573713,2.0727693 c 0.009331,-0.00909 0.0187513,-0.018082 0.0282688,-0.026977 z" stroke-width="1.5px"></path><path id="path1" fill="#ED5307" fill-opacity="1" stroke="none" stroke-linejoin="round" stroke-dasharray="none" stroke-opacity="1" d="M 2.8429681,2.398506 0.84275746,4.360577 C 1.0983345,4.6398782 1.4662755,4.814428 1.8769714,4.814428 c 0.7765346,0 1.4003645,-0.6238299 1.4003645,-1.4003645 0,-0.4009426 -0.1665972,-0.760876 -0.4343678,-1.0155575 z" stroke-width="1.5px"></path><path stroke-width="0px" stroke-opacity="1" d="m 1.8769531,1.5410156 c -1.0310759,0 -1.87109373,0.841971 -1.87109372,1.8730469 -10e-9,1.0310759 0.84001782,1.8710938 1.87109372,1.8710937 C 2.908029,5.2851562 3.75,4.4451384 3.75,3.4140625 3.75,2.3829866 2.908029,1.5410156 1.8769531,1.5410156 Z m 0,0.4726563 c 0.7765354,0 1.4003907,0.6238552 1.4003907,1.4003906 0,0.7765354 -0.6238553,1.4003906 -1.4003907,1.4003906 -0.7765353,0 -1.4003906,-0.6238552 -1.4003906,-1.4003906 0,-0.7765354 0.6238553,-1.4003906 1.4003906,-1.4003906 z" id="circle1" stroke="#000000" fill="#333333"></path></g><path stroke-width="0px" stroke-linecap="round" stroke-linejoin="round" d="M 5.114,5.291 V 0.719 h -5.115 v -0.72 h 10.584 v 0.72 h -4.89 v 4.572 z" stroke-opacity="0.54" stroke="#000000" fill="#333333"></path><path stroke-width="0px" stroke-linecap="round" stroke-linejoin="round" d="M 6.7284081,5.292 V 2.3226725 H 7.2179577 V 5.292 Z" stroke-opacity="0.54" stroke="#000000" fill="#333333"></path><path stroke-width="0px" stroke-linecap="round" stroke-linejoin="round" d="M 8.2737398,2.3211603 V 5.2911964 H 8.7624073 V 2.3211603 Z m 0.4886675,0 v 0.3514165 h 0.02999 c 0.2910836,0 0.5018986,0.019838 0.6324452,0.060223 0.1817066,0.05668 0.335187,0.1686232 0.4622053,0.3358294 0.1279002,0.1664978 0.1914092,0.4052626 0.1914092,0.715586 0,0.2245948 -0.03264,0.4151816 -0.09791,0.5731773 A 1.1581596,0.93026178 0 0 1 9.7097519,4.7328977 0.8203263,0.65890591 0 0 1 9.377211,4.8859339 c -0.1376031,0.036134 -0.3281305,0.054555 -0.5724643,0.054555 h -0.042339 v 0.3507079 h 0.09791 c 0.2240461,0 0.420748,-0.017004 0.5927519,-0.050304 A 1.3760312,1.1052615 0 0 0 9.8941048,5.0921076 C 10.017595,5.0262171 10.129618,4.9369459 10.231938,4.8228773 10.334258,4.7088086 10.418937,4.5642744 10.48421,4.3899832 10.55037,4.2156919 10.583,4.0158946 10.583,3.7905914 10.583,3.525612 10.5336,3.2910982 10.436577,3.0856329 A 1.4951108,1.2009091 0 0 0 9.9999533,2.5762207 1.2507771,1.0046544 0 0 0 9.4583616,2.3636704 c -0.1508342,-0.02834 -0.37047,-0.04251 -0.6580252,-0.04251 z" stroke-opacity="0.54" stroke="#000000" fill="#333333"></path></svg>